<svg width="654" height="397" viewBox="0 0 654 397" fill="none" xmlns="http://www.w3.org/2000/svg">
<g id="undraw_opened_tabs 1" clip-path="url(#clip0)">
    <g id="Group 22">
        <g id="person">
            <path id="arm-left" d="M257.677 139.172C258.168 139.396 258.639 139.659 259.088 139.959L303.94 120.816L305.54 109.001L323.462 108.891L322.403 135.991L263.204 151.649C263.079 152.06 262.93 152.464 262.756 152.857C261.9 154.683 260.523 156.216 258.799 157.263C257.075 158.31 255.08 158.823 253.065 158.74C251.049 158.656 249.104 157.979 247.472 156.794C245.84 155.608 244.595 153.967 243.893 152.076C243.191 150.185 243.064 148.128 243.526 146.165C243.989 144.202 245.022 142.419 246.495 141.041C247.967 139.663 249.814 138.75 251.804 138.418C253.793 138.086 255.837 138.35 257.677 139.175V139.172Z" fill="#A0616A"/>
            <path id="leg-right" d="M329.98 384.731H317.72L311.888 337.443H329.982L329.98 384.731Z" fill="#A0616A"/>
            <path id="shoe-right" d="M308.963 381.228H332.607V396.11H294.076C294.076 392.162 295.644 388.375 298.436 385.583C301.228 382.791 305.015 381.223 308.963 381.223V381.228Z" fill="#2F2E41"/>
            <path id="leg-left" d="M377.66 381.267L365.46 382.467L355.019 335.979L373.026 334.205L377.66 381.267Z" fill="#A0616A"/>
            <path id="shoe-left" d="M356.398 379.847L379.928 377.529L381.387 392.345L343.042 396.121C342.655 392.192 343.845 388.27 346.35 385.218C348.855 382.166 352.469 380.234 356.399 379.847L356.398 379.847Z" fill="#2F2E41"/>
            <g id="head">
                <path id="face" d="M333.393 58.845C346.958 58.845 357.954 47.8487 357.954 34.284C357.954 20.7193 346.958 9.72301 333.393 9.72301C319.828 9.72301 308.832 20.7193 308.832 34.284C308.832 47.8487 319.828 58.845 333.393 58.845Z" fill="#A0616A"/>
                <path id="hair" d="M355.415 40.78C352.355 38.332 348.18 42.78 348.18 42.78L345.732 20.749C345.732 20.749 330.432 22.582 320.638 20.137C310.844 17.692 309.315 29.012 309.315 29.012C308.81 24.4395 308.708 19.8315 309.009 15.241C309.621 9.73302 317.577 4.22402 331.654 0.552023C345.731 -3.11998 353.075 12.793 353.075 12.793C362.869 17.688 358.475 43.228 355.415 40.78Z" fill="#2F2E41"/>
            </g>
            <path id="pants" d="M314.98 375.168C313.926 375.171 312.905 374.801 312.097 374.124C311.289 373.447 310.747 372.506 310.565 371.468C304.224 336.249 283.477 221.066 282.981 217.875C282.97 217.802 282.965 217.727 282.965 217.653V209.065C282.964 208.752 283.062 208.447 283.244 208.193L285.984 204.355C286.114 204.17 286.285 204.018 286.483 203.91C286.682 203.801 286.902 203.74 287.128 203.73C302.75 202.998 353.912 200.851 356.384 203.939C358.866 207.039 357.989 216.446 357.784 218.299L357.794 218.492L380.779 365.492C380.959 366.664 380.67 367.861 379.975 368.822C379.28 369.783 378.234 370.431 377.064 370.627L362.708 372.992C361.639 373.164 360.544 372.946 359.621 372.378C358.699 371.811 358.011 370.931 357.683 369.899C353.243 355.711 338.354 307.981 333.194 289.512C333.161 289.396 333.087 289.295 332.986 289.229C332.884 289.163 332.763 289.136 332.643 289.153C332.523 289.17 332.414 289.23 332.335 289.322C332.256 289.413 332.212 289.53 332.213 289.651C332.471 307.257 333.094 352.174 333.313 367.688L333.336 369.359C333.346 370.49 332.93 371.584 332.173 372.424C331.415 373.264 330.369 373.789 329.243 373.895L315.4 375.149C315.26 375.163 315.124 375.168 314.98 375.168Z" fill="#2F2E41"/>
            <path id="body" d="M317.805 68.503C313.519 71.051 310.954 75.733 309.482 80.503C306.757 89.3241 305.117 98.4443 304.598 107.662L303.042 135.262L283.787 208.432C300.476 222.553 310.102 219.343 332.568 207.793C355.034 196.243 357.6 211.644 357.6 211.644L362.092 149.386L368.51 81.354C367.069 79.6192 365.438 78.0514 363.648 76.68C357.716 72.0661 350.814 68.8588 343.462 67.2998C336.11 65.7408 328.5 65.8708 321.206 67.68L317.805 68.503Z" fill="#6C63FF"/>
            <path id="arm-left_2" d="M311.551 153.949C312.069 154.143 312.57 154.377 313.051 154.649L357.399 132.449L358.135 120.423L376.429 119.162L377.409 146.575L318.143 166.175C317.659 168.252 316.555 170.132 314.977 171.566C313.398 173 311.421 173.919 309.307 174.202C307.193 174.484 305.044 174.116 303.144 173.147C301.245 172.178 299.685 170.653 298.674 168.776C297.662 166.899 297.246 164.758 297.48 162.639C297.715 160.519 298.589 158.521 299.987 156.911C301.385 155.301 303.24 154.154 305.306 153.624C307.371 153.094 309.549 153.205 311.55 153.943L311.551 153.949Z" fill="#A0616A"/>
            <path id="arm-shirt" d="M368.19 81.66C379.101 85.511 381.024 127.234 381.024 127.234C368.187 120.174 352.783 131.727 352.783 131.727C352.783 131.727 349.574 120.815 345.723 106.695C344.56 102.723 344.421 98.5218 345.319 94.4818C346.216 90.4418 348.122 86.6946 350.857 83.589C350.857 83.589 357.278 77.807 368.19 81.66Z" fill="#6C63FF"/>
        </g>
        <g id="tab3">
            <path id="Path 561" d="M650.265 254.926H449.879C449.116 254.926 448.384 255.23 447.844 255.77C447.304 256.309 447.001 257.041 447 257.805V393.592C447.001 394.355 447.304 395.087 447.844 395.627C448.384 396.167 449.116 396.47 449.879 396.471H650.265C650.681 396.471 651.093 396.381 651.47 396.206C651.848 396.032 652.184 395.778 652.454 395.461C652.477 395.436 652.498 395.41 652.517 395.382C652.689 395.171 652.828 394.935 652.93 394.682C653.075 394.336 653.149 393.964 653.148 393.589V257.805C653.147 257.041 652.843 256.308 652.302 255.769C651.762 255.229 651.029 254.926 650.265 254.926V254.926ZM652.325 393.592C652.325 393.993 652.207 394.386 651.985 394.721C651.788 395.015 651.52 395.256 651.206 395.421C650.915 395.571 650.592 395.649 650.265 395.649H449.879C449.334 395.648 448.811 395.431 448.425 395.046C448.039 394.66 447.823 394.137 447.822 393.592V257.805C447.823 257.259 448.039 256.737 448.425 256.351C448.811 255.965 449.334 255.748 449.879 255.748H650.265C650.811 255.748 651.334 255.964 651.721 256.35C652.107 256.736 652.324 257.259 652.325 257.805V393.592Z" fill="#3F3D56"/>
            <path id="Rectangle 99" d="M652.733 266.464H447.41V267.287H652.733V266.464Z" fill="#3F3D56"/>
            <path id="tab3-dot1" d="M454.405 263.567C455.769 263.567 456.874 262.462 456.874 261.098C456.874 259.734 455.769 258.629 454.405 258.629C453.041 258.629 451.936 259.734 451.936 261.098C451.936 262.462 453.041 263.567 454.405 263.567Z" fill="#3F3D56"/>
            <path id="tab3-dot2" d="M461.503 263.567C462.867 263.567 463.972 262.462 463.972 261.098C463.972 259.734 462.867 258.629 461.503 258.629C460.139 258.629 459.034 259.734 459.034 261.098C459.034 262.462 460.139 263.567 461.503 263.567Z" fill="#3F3D56"/>
            <path id="tab3-dot3" d="M468.601 263.567C469.965 263.567 471.07 262.462 471.07 261.098C471.07 259.734 469.965 258.629 468.601 258.629C467.237 258.629 466.132 259.734 466.132 261.098C466.132 262.462 467.237 263.567 468.601 263.567Z" fill="#3F3D56"/>
            <path id="tab3-line1" d="M521.154 307.769H469.238C468.577 307.756 467.948 307.484 467.485 307.012C467.022 306.54 466.763 305.905 466.763 305.244C466.763 304.583 467.022 303.949 467.485 303.477C467.948 303.005 468.577 302.733 469.238 302.72H521.154C521.815 302.733 522.444 303.005 522.907 303.477C523.37 303.949 523.629 304.583 523.629 305.244C523.629 305.905 523.37 306.54 522.907 307.012C522.444 307.484 521.815 307.756 521.154 307.769V307.769Z" fill="#6C63FF"/>
            <path id="Path 584" d="M553.206 309.923H464.072C463.984 309.923 463.9 309.888 463.839 309.826C463.777 309.764 463.742 309.68 463.742 309.593C463.742 309.505 463.777 309.421 463.839 309.359C463.9 309.298 463.984 309.263 464.072 309.263H553.206C553.293 309.263 553.377 309.298 553.439 309.359C553.501 309.421 553.536 309.505 553.536 309.593C553.536 309.68 553.501 309.764 553.439 309.826C553.377 309.888 553.293 309.923 553.206 309.923Z" fill="#3F3D56"/>
            <path id="tab3-line2" d="M521.154 328.915H469.238C468.577 328.902 467.948 328.63 467.485 328.158C467.022 327.686 466.763 327.051 466.763 326.39C466.763 325.729 467.022 325.095 467.485 324.623C467.948 324.151 468.577 323.879 469.238 323.866H521.154C521.815 323.879 522.444 324.151 522.907 324.623C523.37 325.095 523.629 325.729 523.629 326.39C523.629 327.051 523.37 327.686 522.907 328.158C522.444 328.63 521.815 328.902 521.154 328.915V328.915Z" fill="#6C63FF"/>
            <path id="Path 586" d="M553.206 331.068H464.072C463.984 331.068 463.9 331.033 463.839 330.971C463.777 330.909 463.742 330.825 463.742 330.738C463.742 330.65 463.777 330.566 463.839 330.504C463.9 330.443 463.984 330.408 464.072 330.408H553.206C553.293 330.408 553.377 330.443 553.439 330.504C553.501 330.566 553.536 330.65 553.536 330.738C553.536 330.825 553.501 330.909 553.439 330.971C553.377 331.033 553.293 331.068 553.206 331.068V331.068Z" fill="#3F3D56"/>
            <path id="tab3-line3" d="M521.154 350.058H469.238C468.577 350.045 467.948 349.773 467.485 349.301C467.022 348.829 466.763 348.194 466.763 347.533C466.763 346.872 467.022 346.238 467.485 345.766C467.948 345.294 468.577 345.022 469.238 345.009H521.154C521.815 345.022 522.444 345.294 522.907 345.766C523.37 346.238 523.629 346.872 523.629 347.533C523.629 348.194 523.37 348.829 522.907 349.301C522.444 349.773 521.815 350.045 521.154 350.058V350.058Z" fill="#F2F2F2"/>
            <path id="Path 588" d="M553.206 352.212H464.072C463.984 352.212 463.9 352.177 463.839 352.115C463.777 352.053 463.742 351.969 463.742 351.882C463.742 351.794 463.777 351.71 463.839 351.648C463.9 351.587 463.984 351.552 464.072 351.552H553.206C553.293 351.552 553.377 351.587 553.439 351.648C553.501 351.71 553.536 351.794 553.536 351.882C553.536 351.969 553.501 352.053 553.439 352.115C553.377 352.177 553.293 352.212 553.206 352.212V352.212Z" fill="#3F3D56"/>
        </g>
        <g id="tab2">
            <path id="Path 561_2" d="M575.137 25.5236L407.013 134.734C406.373 135.15 405.925 135.804 405.766 136.551C405.607 137.298 405.751 138.078 406.167 138.719L480.171 252.644C480.587 253.284 481.241 253.733 481.988 253.891C482.735 254.05 483.515 253.906 484.155 253.49L652.279 144.28C652.629 144.053 652.924 143.753 653.147 143.401C653.369 143.049 653.511 142.652 653.565 142.239C653.571 142.206 653.575 142.173 653.575 142.139C653.605 141.868 653.593 141.594 653.54 141.326C653.473 140.957 653.333 140.605 653.127 140.291L579.125 26.3678C578.708 25.7273 578.054 25.2785 577.306 25.1202C576.558 24.9619 575.778 25.107 575.137 25.5236V25.5236ZM652.439 140.742C652.658 141.078 652.773 141.472 652.769 141.874C652.764 142.229 652.67 142.577 652.497 142.886C652.334 143.171 652.106 143.412 651.831 143.59L483.707 252.801C483.25 253.097 482.693 253.2 482.159 253.087C481.625 252.974 481.158 252.653 480.861 252.196L406.857 138.271C406.56 137.813 406.457 137.256 406.57 136.722C406.684 136.188 407.004 135.721 407.461 135.424L575.585 26.2133C576.043 25.9158 576.601 25.8122 577.135 25.9253C577.669 26.0384 578.137 26.3589 578.435 26.8164L652.439 140.742Z" fill="#3F3D56"/>
            <path id="Rectangle 99_2" d="M583.496 33.8589L411.23 145.76L411.679 146.45L583.945 34.5494L583.496 33.8589Z" fill="#3F3D56"/>
            <path id="tab2-dot1" d="M415.52 139.517C416.664 138.774 416.989 137.244 416.246 136.1C415.503 134.956 413.973 134.631 412.829 135.374C411.685 136.117 411.36 137.647 412.103 138.791C412.846 139.935 414.376 140.26 415.52 139.517Z" fill="#3F3D56"/>
            <path id="tab2-dot2" d="M421.476 135.649C422.62 134.906 422.945 133.376 422.201 132.232C421.458 131.088 419.928 130.763 418.784 131.506C417.64 132.249 417.315 133.779 418.058 134.923C418.802 136.067 420.332 136.392 421.476 135.649Z" fill="#3F3D56"/>
            <path id="tab2-dot3" d="M427.431 131.781C428.575 131.037 428.9 129.507 428.157 128.363C427.414 127.219 425.884 126.894 424.74 127.638C423.596 128.381 423.271 129.911 424.014 131.055C424.757 132.199 426.287 132.524 427.431 131.781Z" fill="#3F3D56"/>
            <path id="tab2-line1" d="M495.612 140.224L452.055 168.519C451.493 168.868 450.817 168.983 450.172 168.839C449.526 168.695 448.963 168.304 448.603 167.749C448.242 167.195 448.114 166.521 448.245 165.873C448.376 165.225 448.756 164.654 449.303 164.282L492.861 135.988C493.422 135.639 494.098 135.524 494.744 135.668C495.389 135.812 495.953 136.203 496.313 136.758C496.673 137.312 496.801 137.986 496.671 138.634C496.54 139.282 496.16 139.853 495.612 140.224V140.224Z" fill="#6C63FF"/>
            <path id="Path 584_2" d="M523.678 124.563L448.895 173.141C448.821 173.189 448.732 173.206 448.646 173.187C448.561 173.169 448.486 173.118 448.438 173.044C448.39 172.971 448.374 172.882 448.392 172.796C448.41 172.71 448.462 172.635 448.535 172.588L523.319 124.01C523.392 123.962 523.481 123.945 523.567 123.963C523.653 123.982 523.728 124.033 523.775 124.107C523.823 124.18 523.84 124.269 523.821 124.355C523.803 124.441 523.752 124.516 523.678 124.563Z" fill="#3F3D56"/>
            <path id="tab2-line2" d="M507.137 157.966L463.58 186.26C463.018 186.609 462.342 186.724 461.696 186.58C461.051 186.437 460.488 186.045 460.127 185.491C459.767 184.936 459.639 184.263 459.77 183.614C459.901 182.966 460.281 182.395 460.828 182.024L504.385 153.73C504.947 153.381 505.623 153.266 506.269 153.41C506.914 153.553 507.477 153.945 507.838 154.499C508.198 155.054 508.326 155.727 508.195 156.376C508.064 157.024 507.684 157.595 507.137 157.966V157.966Z" fill="#6C63FF"/>
            <path id="Path 586_2" d="M535.202 142.304L460.419 190.882C460.345 190.929 460.256 190.946 460.17 190.928C460.085 190.91 460.01 190.858 459.962 190.785C459.914 190.711 459.898 190.622 459.916 190.536C459.934 190.451 459.986 190.376 460.059 190.328L534.842 141.75C534.916 141.702 535.005 141.686 535.091 141.704C535.177 141.722 535.252 141.774 535.299 141.847C535.347 141.92 535.363 142.01 535.345 142.095C535.327 142.181 535.276 142.256 535.202 142.304V142.304Z" fill="#3F3D56"/>
            <path id="tab2-line3" d="M518.66 175.705L475.102 203.999C474.541 204.348 473.865 204.463 473.219 204.319C472.574 204.175 472.01 203.784 471.65 203.23C471.29 202.675 471.162 202.002 471.293 201.353C471.424 200.705 471.803 200.134 472.351 199.763L515.908 171.469C516.47 171.12 517.146 171.005 517.791 171.148C518.437 171.292 519 171.683 519.36 172.238C519.721 172.793 519.849 173.466 519.718 174.114C519.587 174.763 519.207 175.334 518.66 175.705V175.705Z" fill="#F2F2F2"/>
            <path id="Path 588_2" d="M546.726 160.044L471.942 208.622C471.869 208.67 471.78 208.686 471.694 208.668C471.608 208.65 471.533 208.598 471.486 208.525C471.438 208.451 471.421 208.362 471.44 208.276C471.458 208.191 471.509 208.116 471.583 208.068L546.366 159.49C546.44 159.442 546.529 159.426 546.615 159.444C546.7 159.462 546.775 159.514 546.823 159.587C546.871 159.661 546.887 159.75 546.869 159.836C546.851 159.921 546.799 159.996 546.726 160.044V160.044Z" fill="#3F3D56"/>
        </g>
        <g id="tab1">
            <path id="Path 561_3" d="M243.868 118.926H3.45399C2.53818 118.927 1.66011 119.291 1.01253 119.939C0.364949 120.586 0.000794403 121.464 0 122.38V285.291C0.000794403 286.207 0.364949 287.085 1.01253 287.732C1.66011 288.38 2.53818 288.744 3.45399 288.745H243.868C244.367 288.745 244.861 288.637 245.314 288.427C245.767 288.218 246.17 287.913 246.494 287.533C246.521 287.503 246.546 287.472 246.569 287.438C246.777 287.186 246.945 286.904 247.069 286.602C247.243 286.187 247.331 285.741 247.33 285.291V122.38C247.33 121.926 247.24 121.476 247.066 121.057C246.891 120.637 246.636 120.256 246.315 119.936C245.993 119.615 245.612 119.361 245.192 119.187C244.772 119.014 244.322 118.925 243.868 118.926V118.926ZM246.34 285.291C246.341 285.773 246.199 286.244 245.932 286.646C245.695 287 245.374 287.288 244.997 287.486C244.648 287.666 244.261 287.76 243.868 287.759H3.45399C2.79995 287.758 2.17293 287.498 1.71045 287.036C1.24797 286.573 0.987793 285.946 0.987 285.292V122.38C0.987793 121.726 1.24797 121.099 1.71045 120.636C2.17293 120.174 2.79995 119.914 3.45399 119.913H243.868C244.523 119.913 245.151 120.173 245.615 120.635C246.078 121.098 246.339 121.726 246.34 122.381V285.291Z" fill="#3F3D56"/>
            <path id="Rectangle 99_3" d="M246.83 132.768H0.492004V133.755H246.83V132.768Z" fill="#3F3D56"/>
            <path id="tab1-dot1" d="M8.884 129.293C10.5199 129.293 11.846 127.967 11.846 126.331C11.846 124.695 10.5199 123.369 8.884 123.369C7.24813 123.369 5.922 124.695 5.922 126.331C5.922 127.967 7.24813 129.293 8.884 129.293Z" fill="#3F3D56"/>
            <path id="tab1-dot2" d="M17.4 129.293C19.0359 129.293 20.362 127.967 20.362 126.331C20.362 124.695 19.0359 123.369 17.4 123.369C15.7641 123.369 14.438 124.695 14.438 126.331C14.438 127.967 15.7641 129.293 17.4 129.293Z" fill="#3F3D56"/>
            <path id="tab1-dot3" d="M25.916 129.293C27.5518 129.293 28.878 127.967 28.878 126.331C28.878 124.695 27.5518 123.369 25.916 123.369C24.2801 123.369 22.954 124.695 22.954 126.331C22.954 127.967 24.2801 129.293 25.916 129.293Z" fill="#3F3D56"/>
            <path id="tab1-line-bottom" d="M189.415 218.819H107.155C106.163 218.819 105.212 218.425 104.511 217.724C103.81 217.023 103.416 216.072 103.416 215.08C103.416 214.088 103.81 213.137 104.511 212.436C105.212 211.735 106.163 211.341 107.155 211.341H189.415C190.407 211.341 191.358 211.735 192.059 212.436C192.76 213.137 193.154 214.088 193.154 215.08C193.154 216.072 192.76 217.023 192.059 217.724C191.358 218.425 190.407 218.819 189.415 218.819V218.819Z" fill="#F2F2F2"/>
            <path id="tab1-line-top" d="M135.666 202.928H107.156C106.164 202.928 105.213 202.534 104.512 201.833C103.811 201.132 103.417 200.181 103.417 199.189C103.417 198.197 103.811 197.246 104.512 196.545C105.213 195.844 106.164 195.45 107.156 195.45H135.666C136.658 195.45 137.609 195.844 138.31 196.545C139.011 197.246 139.405 198.197 139.405 199.189C139.405 200.181 139.011 201.132 138.31 201.833C137.609 202.534 136.658 202.928 135.666 202.928V202.928Z" fill="#F2F2F2"/>
            <path id="tab1-bigdot" d="M69.897 223.375C78.6733 223.375 85.788 216.26 85.788 207.484C85.788 198.708 78.6733 191.593 69.897 191.593C61.1206 191.593 54.006 198.708 54.006 207.484C54.006 216.26 61.1206 223.375 69.897 223.375Z" fill="#6C63FF"/>
            <path id="Path 591" d="M197.66 183.18H49.5C47.3935 183.183 45.3741 184.021 43.8845 185.511C42.395 187 41.5569 189.02 41.554 191.126V223.843C41.5572 225.949 42.3952 227.968 43.8845 229.457C45.3738 230.947 47.3929 231.785 49.499 231.788H197.66C199.766 231.785 201.786 230.947 203.275 229.457C204.764 227.968 205.602 225.948 205.605 223.842V191.124C205.602 189.018 204.764 186.998 203.275 185.509C201.786 184.019 199.766 183.181 197.66 183.178V183.18ZM204.671 223.842C204.669 225.701 203.93 227.483 202.615 228.797C201.301 230.112 199.519 230.851 197.66 230.853H49.5C47.6412 230.851 45.8592 230.112 44.5448 228.797C43.2304 227.483 42.4911 225.701 42.489 223.842V191.124C42.4911 189.265 43.2304 187.483 44.5448 186.169C45.8592 184.854 47.6412 184.115 49.5 184.113H197.66C199.519 184.115 201.301 184.854 202.615 186.169C203.93 187.483 204.669 189.265 204.671 191.124V223.842Z" fill="#3F3D56"/>
        </g>
    </g>
</g>
<defs>
<clipPath id="clip0">
<rect width="653.146" height="396.47" fill="white"/>
</clipPath>
</defs>
</svg>
